<?xml version="1.0" encoding="UTF-8" standalone="no"?>
<svg
   xmlns:dc="http://purl.org/dc/elements/1.1/"
   xmlns:cc="http://creativecommons.org/ns#"
   xmlns:rdf="http://www.w3.org/1999/02/22-rdf-syntax-ns#"
   xmlns:svg="http://www.w3.org/2000/svg"
   xmlns="http://www.w3.org/2000/svg"
   xmlns:sodipodi="http://sodipodi.sourceforge.net/DTD/sodipodi-0.dtd"
   xmlns:inkscape="http://www.inkscape.org/namespaces/inkscape"
   width="16"
   height="16"
   viewBox="0 0 4.2333331 4.2333335"
   version="1.1"
   id="svg2016"
   inkscape:version="1.0.2-2 (e86c870879, 2021-01-15)"
   sodipodi:docname="Entry.svg">
  <defs
     id="defs2010" />
  <sodipodi:namedview
     id="base"
     pagecolor="#ffffff"
     bordercolor="#666666"
     borderopacity="1.0"
     inkscape:pageopacity="0.0"
     inkscape:pageshadow="2"
     inkscape:zoom="31.678384"
     inkscape:cx="4.2950087"
     inkscape:cy="8.5773877"
     inkscape:document-units="mm"
     inkscape:current-layer="layer1"
     inkscape:document-rotation="0"
     showgrid="true"
     units="px"
     inkscape:window-width="1647"
     inkscape:window-height="1030"
     inkscape:window-x="2756"
     inkscape:window-y="116"
     inkscape:window-maximized="0">
    <inkscape:grid
       type="xygrid"
       id="grid2018" />
  </sodipodi:namedview>
  <metadata
     id="metadata2013">
    <rdf:RDF>
      <cc:Work
         rdf:about="">
        <dc:format>image/svg+xml</dc:format>
        <dc:type
           rdf:resource="http://purl.org/dc/dcmitype/StillImage" />
        <dc:title />
      </cc:Work>
    </rdf:RDF>
  </metadata>
  <g
     inkscape:label="Calque 1"
     inkscape:groupmode="layer"
     id="layer1">
    <ellipse
       style="fill:#c3d1d5;fill-opacity:0;stroke:#000000;stroke-width:0.128564;stroke-miterlimit:4;stroke-dasharray:none"
       id="path2020"
       cx="2.1194403"
       cy="2.1160731"
       rx="2.0475905"
       ry="2.0488694" />
    <path
       style="fill:#ffffff;fill-opacity:1;stroke:#000000;stroke-width:0.0153909"
       d="M 7.3781388,15.458062 C 5.81997,15.307185 4.4040853,14.720308 3.2134201,13.731808 2.0477666,12.764073 1.1511956,11.351759 0.77774178,9.8950319 0.3844164,8.3607917 0.46794277,6.7795599 1.0181563,5.3437628 2.0064233,2.764853 4.3300272,0.93530968 7.0739203,0.57561669 7.509398,0.51853059 8.4539102,0.51024967 8.8564788,0.5599883 11.382892,0.87213468 13.529631,2.3693926 14.67147,4.6156957 c 0.525019,1.0328513 0.769159,1.9959585 0.804206,3.1725103 0.06875,2.307952 -0.912533,4.474778 -2.704856,5.972752 -1.027603,0.858842 -2.367434,1.451401 -3.7294234,1.649388 -0.4192467,0.06094 -1.2735393,0.08545 -1.6632578,0.04772 z"
       id="path832"
       transform="scale(0.26458333)" />
  </g>
</svg>
